# xmcd
#
# Track frame offsets:
#	150
#	29634
#	39698
#	51807
#	67394
#	79331
#	90595
#	103502
#	115307
#
# Disc length: 1675 seconds
#
# Revision: 0
# Processed by: cddbd v1.5.2PL0 Copyright (c) Steve Scherf et al.
# Submitted via: audiograbber 1.83.01
#
DISCID=7e068909
DTITLE=Marcels - High School Memories (Demo CD)
DYEAR=1900
DGENRE=
TTITLE0=High School Memories
TTITLE1=Tonight We're Gonna Party
TTITLE2=No One Left
TTITLE3=Blue Moon
TTITLE4=Baby Tonight
TTITLE5=When Will I See You Again
TTITLE6=You Are A Friend Of Mine
TTITLE7=Talking Strange
TTITLE8=Prince Of The City
EXTD=
EXTT0=
EXTT1=
EXTT2=
EXTT3=
EXTT4=
EXTT5=
EXTT6=
EXTT7=
EXTT8=
PLAYORDER=
